<?xml version="1.0" encoding="utf-8"?>
<!-- Generator: Adobe Illustrator 22.1.0, SVG Export Plug-In . SVG Version: 6.00 Build 0)  -->
<svg version="1.1" id="Camada_1" xmlns="http://www.w3.org/2000/svg" xmlns:xlink="http://www.w3.org/1999/xlink" x="0px" y="0px"
	 viewBox="0 0 160 120" style="enable-background:new 0 0 160 120;" xml:space="preserve">
<style type="text/css">
	.st0{clip-path:url(#SVGID_2_);}
	.st1{fill:#F4F8FA;}
	.st2{opacity:0.2;fill:#6C848F;enable-background:new    ;}
	.st3{fill:#FFFFFF;}
	.st4{fill:none;stroke:#6C848F;stroke-linecap:round;stroke-linejoin:round;}
	.st5{opacity:0.4;fill:none;stroke:#6C848F;enable-background:new    ;}
	.st6{fill:#7AD3EA;}
	.st7{fill:#62A9BB;}
	.st8{fill:#364656;}
	.st9{fill:none;stroke:#FFFFFF;}
</style>
<g>
	<defs>
		<rect id="SVGID_1_" width="160" height="120"/>
	</defs>
	<clipPath id="SVGID_2_">
		<use xlink:href="#SVGID_1_"  style="overflow:visible;"/>
	</clipPath>
	<g id="icon_popup" class="st0">
		<g id="Group_63">
			<path id="Vector_21" class="st1" d="M5,48.2C3.6,9.6,51.5,3.5,75.6,5.3c15.8,0,70.6,0,81.5,62.6c10.9,62.6-81.5,44.7-97.8,44.7
				C43,112.6,6.8,96.5,5,48.2z"/>
		</g>
		<g id="Group_2.14">
			<path id="Vector_32" class="st2" d="M154,33.7l-142-0.8l0-22.5l143,1L154,33.7z"/>
			<path id="Vector_32.1" class="st3" d="M107.3,26.9l-87.4-0.5l0-8l88,0.6L107.3,26.9z"/>
			<path id="Vector_32.3" class="st2" d="M148.8,111.1l-135.9-2.8l0.1-7.6l136.8,2.9L148.8,111.1z"/>
		</g>
		<path id="Vector_33" class="st4" d="M104.8,97.2c2.3-1,4.6-2.1,6.8-3.4"/>
		<path id="Vector_33.1" class="st4" d="M153.4,75.1c2.3-1,4.6-2.1,6.8-3.4"/>
		<path id="Vector_34" class="st4" d="M127.8,107.8c0.2-2.1,0.4-4.2,0.4-6.4"/>
		<path id="Vector_34.1" class="st4" d="M132.4,70.2c0.2-2.1,0.4-4.2,0.4-6.4"/>
		<path id="Vector_35" class="st4" d="M150.8,99.8c1.1,1.6,2.1,3.3,3.4,4.7"/>
		<path id="Vector_35.1" class="st4" d="M107,75.8c1.7,1,3.3,2.1,5.1,2.8"/>
		<path id="Vector_32.99" class="st5" d="M10.1,12.7l142.8-2.2l-2.5,99.7l-136.9-1.6L10.1,12.7z"/>
		<g id="Group_82">
			<path id="Vector_32.84" class="st6" d="M120.5,71.7l-1.2,28.5l26.7,1.3l0.6-29.2L120.5,71.7z"/>
			<path id="Vector_32.85" class="st3" d="M122.4,78.7l-0.1,3.2l22.5,1l-0.3-3.6L122.4,78.7z"/>
			<path id="Vector_32.86" class="st3" d="M122.1,84l-0.1,3.2l22.5,1l-0.4-3.6L122.1,84z"/>
			<path id="Vector_32.87" class="st7" d="M121.8,92.3l-0.2,4.6l22.2,1.1l-0.3-5.1L121.8,92.3z"/>
			<g id="Group_18.1">
				<circle id="Ellipse" class="st8" cx="146" cy="73.3" r="2.3"/>
				<path id="Vector_36" class="st9" d="M145.4,72.2l1.3,2.4 M147.1,72.5l-2.3,1.5"/>
			</g>
		</g>
	</g>
</g>
</svg>
