<?xml version="1.0" encoding="utf-8"?>
<!-- Generator: Adobe Illustrator 22.1.0, SVG Export Plug-In . SVG Version: 6.00 Build 0)  -->
<svg version="1.1" id="Camada_1" xmlns="http://www.w3.org/2000/svg" xmlns:xlink="http://www.w3.org/1999/xlink" x="0px" y="0px"
	 viewBox="0 0 160 120" style="enable-background:new 0 0 160 120;" xml:space="preserve">
<style type="text/css">
	.st0{clip-path:url(#SVGID_2_);}
	.st1{fill:#F4F8FA;}
	.st2{opacity:0.2;fill:#6C848F;enable-background:new    ;}
	.st3{fill:#FFFFFF;}
	.st4{fill:#8FE3F1;enable-background:new    ;}
	.st5{fill:#FDA128;}
	.st6{opacity:0.6;fill:#93BD4D;enable-background:new    ;}
	.st7{fill:#93BD4D;}
	.st8{fill:none;stroke:#6C848F;stroke-linecap:round;stroke-linejoin:round;}
	.st9{opacity:0.4;fill:none;stroke:#6C848F;enable-background:new    ;}
	.st10{fill:#7AD3EA;}
	.st11{fill:#62A9BB;}
	.st12{fill:#364656;}
	.st13{fill:none;stroke:#FFFFFF;}
</style>
<g>
	<defs>
		<rect id="SVGID_1_" width="160" height="120"/>
	</defs>
	<clipPath id="SVGID_2_">
		<use xlink:href="#SVGID_1_"  style="overflow:visible;"/>
	</clipPath>
	<g id="icon_popup" class="st0">
		<g id="Group_63">
			<path id="Vector_21" class="st1" d="M5,48.2C3.6,9.6,51.5,3.5,75.6,5.3c15.8,0,70.6,0,81.5,62.6c10.9,62.6-81.5,44.7-97.8,44.7
				C43,112.6,6.8,96.5,5,48.2z"/>
		</g>
		<g id="Group_2.14">
			<path id="Vector_32" class="st2" d="M154,33.7l-142-0.8l0-22.5l143,1L154,33.7z"/>
			<path id="Vector_32.1" class="st3" d="M107.3,26.9l-87.4-0.5l0-8l88,0.6L107.3,26.9z"/>
			<path id="Vector_32.3" class="st2" d="M148.8,111.1l-135.9-2.8l0.1-7.6l136.8,2.9L148.8,111.1z"/>
		</g>
		<path class="st4" d="M75.9,92.6l-39.1,2.3L36,31.4l39.7-0.3L75.9,92.6z"/>
		<path class="st5" d="M49.8,52.4c-3.3-1.7-3.3-4.8-2.9-6.1c3.3-9.1,7.8-4.9,10.3-3.3c2.5,1.6,1.5,4.8,0.3,6.9
			C56.3,52,53.9,54.5,49.8,52.4z"/>
		<path class="st6" d="M57.1,93.7l8-15.2l9.8,14.2L57.1,93.7z"/>
		<path class="st7" d="M45.1,94.3l10.8-20.4L69,93L45.1,94.3z"/>
		<path id="Vector_33" class="st8" d="M10.4,88.8c6-2.7,11.9-5.5,17.6-8.8"/>
		<path id="Vector_33.1" class="st8" d="M135.8,31.8c6-2.7,11.9-5.5,17.6-8.8"/>
		<path id="Vector_34" class="st8" d="M69.8,116.3c0.6-5.5,1.1-10.9,1.1-16.5"/>
		<path id="Vector_34.1" class="st8" d="M81.6,19.1c0.6-5.5,1.1-10.9,1.1-16.5"/>
		<path id="Vector_35" class="st8" d="M129.2,95.6c2.9,4.1,5.3,8.5,8.8,12.1"/>
		<path id="Vector_35.1" class="st8" d="M15.8,33.6C20.2,36,24.3,39,29,40.8"/>
		<path id="Vector_32.99" class="st9" d="M10.1,12.7l142.8-2.2l-2.5,99.7l-136.9-1.6L10.1,12.7z"/>
		<g id="Group_82">
			<path id="Vector_32.84" class="st10" d="M72.5,31l-2.6,62.1L128,96l1.2-63.7L72.5,31z"/>
			<path id="Vector_32.85" class="st3" d="M76.6,46.2l-0.3,7.1l49.1,2.3l-0.8-7.9L76.6,46.2z"/>
			<path id="Vector_32.86" class="st3" d="M76.1,57.8l-0.3,7.1l49.1,2.3l-0.8-7.9L76.1,57.8z"/>
			<path id="Vector_32.87" class="st11" d="M75.3,76L74.9,86l48.4,2.4l-0.6-11.2L75.3,76z"/>
			<g id="Group_18.1">
				<circle id="Ellipse" class="st12" cx="128.1" cy="34.5" r="5"/>
				<path id="Vector_36" class="st13" d="M126.8,32.1l2.8,5.2 M130.5,32.8l-5,3.2"/>
			</g>
		</g>
	</g>
</g>
</svg>
